<?xml version="1.0" standalone="no"?>
<!DOCTYPE svg PUBLIC "-//W3C//DTD SVG 20010904//EN"
 "http://www.w3.org/TR/2001/REC-SVG-20010904/DTD/svg10.dtd">
<svg version="1.0" xmlns="http://www.w3.org/2000/svg"
 width="316.000000pt" height="295.000000pt" viewBox="0 0 316.000000 295.000000"
 preserveAspectRatio="xMidYMid meet">

<g transform="translate(0.000000,295.000000) scale(0.100000,-0.100000)"
fill="#ED1B24" stroke="none">
<path d="M276 2754 c-3 -9 -6 -596 -6 -1305 l0 -1289 225 0 225 0 0 620 0 620
26 10 c14 6 63 10 108 10 78 0 84 -1 90 -22 3 -13 6 -296 6 -630 l0 -608 140
0 140 0 0 624 0 624 23 4 c12 2 60 3 107 3 l85 0 3 -628 2 -628 138 3 137 3 3
622 2 623 23 5 c12 3 60 5 107 3 l85 -3 3 -628 2 -628 138 3 137 3 2 615 c2
338 5 620 8 628 3 9 29 12 102 10 l98 -3 3 -628 2 -627 228 2 227 3 0 1300 0
1300 -1306 3 c-1185 2 -1307 1 -1313 -14z m2289 -1134 l0 -95 -980 0 -980 0
-3 84 c-2 46 -1 90 2 98 5 11 174 13 983 11 l978 -3 0 -95z"/>
</g>
</svg>
